<?xml version="1.0" encoding="UTF-8" standalone="no"?>
<!-- Created with Inkscape (http://www.inkscape.org/) -->

<svg
   xmlns:dc="http://purl.org/dc/elements/1.1/"
   xmlns:cc="http://creativecommons.org/ns#"
   xmlns:rdf="http://www.w3.org/1999/02/22-rdf-syntax-ns#"
   xmlns:svg="http://www.w3.org/2000/svg"
   xmlns="http://www.w3.org/2000/svg"
   xmlns:sodipodi="http://sodipodi.sourceforge.net/DTD/sodipodi-0.dtd"
   xmlns:inkscape="http://www.inkscape.org/namespaces/inkscape"
   width="14.8cm"
   height="21cm"
   viewBox="0 0 148 210"
   version="1.1"
   id="svg889"
   inkscape:version="0.92.4 (5da689c313, 2019-01-14)"
   sodipodi:docname="1.svg">
  <defs
     id="defs883" />
  <sodipodi:namedview
     id="base"
     pagecolor="#ffffff"
     bordercolor="#666666"
     borderopacity="1.0"
     inkscape:pageopacity="0.0"
     inkscape:pageshadow="2"
     inkscape:zoom="1.4"
     inkscape:cx="278.44497"
     inkscape:cy="417.27296"
     inkscape:document-units="mm"
     inkscape:current-layer="layer1"
     showgrid="false"
     units="cm"
     inkscape:window-width="1920"
     inkscape:window-height="1017"
     inkscape:window-x="-8"
     inkscape:window-y="-8"
     inkscape:window-maximized="1" />
  <metadata
     id="metadata886">
    <rdf:RDF>
      <cc:Work
         rdf:about="">
        <dc:format>image/svg+xml</dc:format>
        <dc:type
           rdf:resource="http://purl.org/dc/dcmitype/StillImage" />
        <dc:title></dc:title>
      </cc:Work>
    </rdf:RDF>
  </metadata>
  <g
     inkscape:label="Layer 1"
     inkscape:groupmode="layer"
     id="layer1"
     transform="translate(0,-87)">
    <text
       xml:space="preserve"
       style="font-style:normal;font-variant:normal;font-weight:normal;font-stretch:normal;font-size:8.29911804px;line-height:1.25;font-family:Arial;-inkscape-font-specification:Arial;letter-spacing:0px;word-spacing:0px;fill:#ff8080;fill-opacity:1;stroke:none;stroke-width:0.20747796"
       x="31.075912"
       y="101.89258"
       id="text1575"><tspan
         sodipodi:role="line"
         id="tspan1573"
         x="31.075912"
         y="101.89258"
         style="fill:#ff8080;fill-opacity:1;stroke-width:0.20747796">BINTANG LAUT &amp; BATU</tspan></text>
    <path
       sodipodi:type="star"
       style="fill:#b3b3b3;fill-opacity:1;stroke-width:0.26458332"
       id="path4928"
       sodipodi:sides="5"
       sodipodi:cx="70.559151"
       sodipodi:cy="83.71891"
       sodipodi:r1="19.288492"
       sodipodi:r2="48.22123"
       sodipodi:arg1="0.62798129"
       sodipodi:arg2="1.2562998"
       inkscape:flatsided="false"
       inkscape:rounded="0"
       inkscape:randomized="0"
       d="M 86.167691,95.051138 85.475796,129.575 64.604866,102.06537 31.556918,112.07579 51.27066,83.725415 31.537799,55.388341 l 33.054694,9.988134 20.852369,-27.523702 0.715182,34.523384 32.620336,11.32649 z"
       inkscape:transform-center-y="-0.75849979"
       transform="matrix(0.2363887,-0.07394984,0.07394984,0.2363887,16.399886,112.11855)"
       inkscape:transform-center-x="1.0431358" />
    <rect
       style="opacity:0.5;fill:#e6e6e6;fill-opacity:1;stroke-width:0.26458332"
       id="rect1478"
       width="56.318451"
       height="22.678572"
       x="69.963394"
       y="114.43751" />
    <text
       xml:space="preserve"
       style="font-style:normal;font-variant:normal;font-weight:normal;font-stretch:normal;font-size:10.58333302px;line-height:1.25;font-family:'Futura Bk BT';-inkscape-font-specification:'Futura Bk BT';letter-spacing:0px;word-spacing:0px;fill:#000000;fill-opacity:1;stroke:none;stroke-width:0.26458332;"
       x="79.186012"
       y="115.57143"
       id="text1482"><tspan
         sodipodi:role="line"
         id="tspan1480"
         x="79.186012"
         y="124.9352"
         style="stroke-width:0.26458332;-inkscape-font-specification:'Futura Bk BT';font-family:'Futura Bk BT';font-weight:normal;font-style:normal;font-stretch:normal;font-variant:normal;" /></text>
    <text
       xml:space="preserve"
       style="font-style:normal;font-variant:normal;font-weight:normal;font-stretch:normal;font-size:10.58333302px;line-height:0.5;font-family:'Futura Md BT';-inkscape-font-specification:'Futura Md BT';letter-spacing:0px;word-spacing:0px;fill:#ff8080;fill-opacity:1;stroke:none;stroke-width:0.26458332"
       x="97.928833"
       y="124.0759"
       id="text1486"><tspan
         sodipodi:role="line"
         x="74.839287"
         y="124.0759"
         style="font-size:4.58611107px;line-height:0.5;fill:#ff8080;fill-opacity:1;stroke-width:0.26458332;text-anchor:middle;text-align:center"
         id="tspan1492">Buatlah sebuah shape </tspan><tspan
         sodipodi:role="line"
         x="74.839287"
         y="129.42613"
         style="font-size:4.58611107px;line-height:0.5;fill:#ff8080;fill-opacity:1;stroke-width:0.26458332;text-anchor:middle;text-align:center"
         id="tspan1496">berbentuk bintang.</tspan></text>
    <path
       sodipodi:type="star"
       style="fill:#b3b3b3;fill-opacity:1;stroke-width:0.26458332"
       id="path4928-1"
       sodipodi:sides="5"
       sodipodi:cx="70.559151"
       sodipodi:cy="83.71891"
       sodipodi:r1="27.727207"
       sodipodi:r2="48.22123"
       sodipodi:arg1="0.62798129"
       sodipodi:arg2="1.2562998"
       inkscape:flatsided="false"
       inkscape:rounded="0.15"
       inkscape:randomized="0"
       d="m 92.996427,100.00899 c -2.688531,3.70307 -3.168951,28.15044 -7.520631,29.56601 -4.351679,1.41557 -19.123297,-18.07043 -23.47593,-19.48306 -4.352633,-1.41263 -27.751919,5.68511 -30.442948,1.98385 -2.691029,-3.70125 11.27657,-23.771401 11.275027,-28.347529 -0.0015,-4.576128 -13.982677,-24.636847 -11.294146,-28.33992 2.688532,-3.703072 26.092602,3.378888 30.444281,1.963319 4.351679,-1.415569 19.110149,-20.911521 23.462782,-19.498887 4.352633,1.412633 4.849544,25.859672 7.540573,29.56093 2.691029,3.701258 25.793395,11.712816 25.794945,16.288944 0.002,4.576128 -23.095421,12.603268 -25.783953,16.306343 z"
       inkscape:transform-center-y="-0.75849979"
       transform="matrix(0.2363887,-0.07394984,0.07394984,0.2363887,16.401187,142.73166)"
       inkscape:transform-center-x="1.0431358" />
    <rect
       style="opacity:0.5;fill:#e6e6e6;fill-opacity:1;stroke-width:0.26458332"
       id="rect1478-3"
       width="56.318455"
       height="22.678572"
       x="69.963394"
       y="145.05347" />
    <text
       xml:space="preserve"
       style="font-style:normal;font-variant:normal;font-weight:normal;font-stretch:normal;font-size:10.58333302px;line-height:0.5;font-family:'Futura Md BT';-inkscape-font-specification:'Futura Md BT';letter-spacing:0px;word-spacing:0px;fill:#ff8080;fill-opacity:1;stroke:none;stroke-width:0.26458332"
       x="97.928833"
       y="149.92941"
       id="text1486-6"><tspan
         sodipodi:role="line"
         x="98.409424"
         y="149.92941"
         style="font-size:3.17499995px;line-height:0.5;text-align:center;text-anchor:middle;fill:#ff8080;fill-opacity:1;stroke-width:0.26458332"
         id="tspan1496-6">Ubah value Rounded pada bintang, </tspan><tspan
         sodipodi:role="line"
         x="98.409424"
         y="155.29343"
         style="font-size:3.17499995px;line-height:0.5;text-align:center;text-anchor:middle;fill:#ff8080;fill-opacity:1;stroke-width:0.26458332"
         id="tspan1539">lalu ubah nilainya semirip mungkin </tspan><tspan
         sodipodi:role="line"
         x="98.409424"
         y="160.65744"
         style="font-size:3.17499995px;line-height:0.5;text-align:center;text-anchor:middle;fill:#ff8080;fill-opacity:1;stroke-width:0.26458332"
         id="tspan1541">dengan bintang laut. Kemudian beri </tspan><tspan
         sodipodi:role="line"
         x="97.928833"
         y="166.02145"
         style="font-size:3.17499995px;line-height:0.5;text-align:center;text-anchor:middle;fill:#ff8080;fill-opacity:1;stroke-width:0.26458332"
         id="tspan1558">warna .</tspan></text>
    <path
       sodipodi:type="star"
       style="fill:#ff8080;fill-opacity:1;stroke-width:0.26458332"
       id="path4928-1-2"
       sodipodi:sides="5"
       sodipodi:cx="70.559151"
       sodipodi:cy="83.71891"
       sodipodi:r1="27.727207"
       sodipodi:r2="48.22123"
       sodipodi:arg1="0.62798129"
       sodipodi:arg2="1.2562998"
       inkscape:flatsided="false"
       inkscape:rounded="0.15"
       inkscape:randomized="0"
       d="m 92.996427,100.00899 c -2.688531,3.70307 -3.168951,28.15044 -7.520631,29.56601 -4.351679,1.41557 -19.123297,-18.07043 -23.47593,-19.48306 -4.352633,-1.41263 -27.751919,5.68511 -30.442948,1.98385 -2.691029,-3.70125 11.27657,-23.771401 11.275027,-28.347529 -0.0015,-4.576128 -13.982677,-24.636847 -11.294146,-28.33992 2.688532,-3.703072 26.092602,3.378888 30.444281,1.963319 4.351679,-1.415569 19.110149,-20.911521 23.462782,-19.498887 4.352633,1.412633 4.849544,25.859672 7.540573,29.56093 2.691029,3.701258 25.793395,11.712816 25.794945,16.288944 0.002,4.576128 -23.095421,12.603268 -25.783953,16.306343 z"
       inkscape:transform-center-y="-0.75849979"
       transform="matrix(0.2363887,-0.07394984,0.07394984,0.2363887,22.448807,145.33962)"
       inkscape:transform-center-x="1.0431358" />
    <path
       sodipodi:type="star"
       style="fill:#b3b3b3;fill-opacity:1;stroke-width:0.26458332"
       id="path4928-4-6"
       sodipodi:sides="5"
       sodipodi:cx="70.559151"
       sodipodi:cy="83.71891"
       sodipodi:r1="0.96442461"
       sodipodi:r2="48.22123"
       sodipodi:arg1="0.62798129"
       sodipodi:arg2="1.2562998"
       inkscape:flatsided="false"
       inkscape:rounded="0.02"
       inkscape:randomized="0"
       d="M 71.339578,84.285522 C 70.782095,85.053376 86.378143,129.28147 85.475796,129.575 84.57345,129.86852 71.163981,84.929151 70.261436,84.636233 69.358892,84.343315 32.114919,112.84327 31.556918,112.07579 30.998917,111.30832 69.595046,84.668123 69.594726,83.719235 69.594406,82.770348 30.980316,56.156196 31.537799,55.388341 c 0.557484,-0.767854 37.820672,27.706974 38.723019,27.413447 0.902347,-0.293526 14.2815,-45.241933 15.184044,-44.949015 0.902545,0.292918 -14.663668,44.531522 -14.105667,45.299 0.558001,0.767478 47.440865,-0.398013 47.441185,0.550874 3.2e-4,0.948888 -46.883319,-0.18498 -47.440802,0.582875 z"
       inkscape:transform-center-y="-0.75849979"
       transform="matrix(0.2363887,-0.07394984,0.07394984,0.2363887,17.155863,175.23987)"
       inkscape:transform-center-x="1.0431358" />
    <rect
       style="opacity:0.5;fill:#e6e6e6;fill-opacity:1;stroke-width:0.26458332"
       id="rect1478-1"
       width="56.318455"
       height="22.678572"
       x="69.963387"
       y="177.25691" />
    <text
       xml:space="preserve"
       style="font-style:normal;font-variant:normal;font-weight:normal;font-stretch:normal;font-size:10.58333302px;line-height:0.5;font-family:'Futura Md BT';-inkscape-font-specification:'Futura Md BT';letter-spacing:0px;word-spacing:0px;fill:#ff8080;fill-opacity:1;stroke:none;stroke-width:0.26458332"
       x="97.928833"
       y="184.2495"
       id="text1486-1"><tspan
         sodipodi:role="line"
         x="98.462822"
         y="184.2495"
         style="font-size:3.52777767px;line-height:0.5;text-align:center;text-anchor:middle;fill:#ff8080;fill-opacity:1;stroke-width:0.26458332"
         id="tspan1601">Buat shape bintang lagi, </tspan><tspan
         sodipodi:role="line"
         x="98.462822"
         y="189.61006"
         style="font-size:3.52777767px;line-height:0.5;text-align:center;text-anchor:middle;fill:#ff8080;fill-opacity:1;stroke-width:0.26458332"
         id="tspan1607">namun edit spoke rationya </tspan><tspan
         sodipodi:role="line"
         x="97.928833"
         y="194.97063"
         style="font-size:3.52777767px;line-height:0.5;text-align:center;text-anchor:middle;fill:#ff8080;fill-opacity:1;stroke-width:0.26458332"
         id="tspan1611">hingga sekurus mungkin.</tspan></text>
    <g
       id="g1660"
       transform="translate(0,0.52916667)">
      <path
         inkscape:transform-center-x="1.0431358"
         transform="matrix(0.2363887,-0.07394984,0.07394984,0.2363887,17.913092,207.32771)"
         inkscape:transform-center-y="-0.75849979"
         d="m 92.996427,100.00899 c -2.688531,3.70307 -3.168951,28.15044 -7.520631,29.56601 -4.351679,1.41557 -19.123297,-18.07043 -23.47593,-19.48306 -4.352633,-1.41263 -27.751919,5.68511 -30.442948,1.98385 -2.691029,-3.70125 11.27657,-23.771401 11.275027,-28.347529 -0.0015,-4.576128 -13.982677,-24.636847 -11.294146,-28.33992 2.688532,-3.703072 26.092602,3.378888 30.444281,1.963319 4.351679,-1.415569 19.110149,-20.911521 23.462782,-19.498887 4.352633,1.412633 4.849544,25.859672 7.540573,29.56093 2.691029,3.701258 25.793395,11.712816 25.794945,16.288944 0.002,4.576128 -23.095421,12.603268 -25.783953,16.306343 z"
         inkscape:randomized="0"
         inkscape:rounded="0.15"
         inkscape:flatsided="false"
         sodipodi:arg2="1.2562998"
         sodipodi:arg1="0.62798129"
         sodipodi:r2="48.22123"
         sodipodi:r1="27.727207"
         sodipodi:cy="83.71891"
         sodipodi:cx="70.559151"
         sodipodi:sides="5"
         id="path4928-1-2-3"
         style="fill:#ff8080;fill-opacity:1;stroke-width:0.26458332"
         sodipodi:type="star" />
      <path
         inkscape:transform-center-x="1.0431358"
         transform="matrix(0.2363887,-0.07394984,0.07394984,0.2363887,17.911793,207.34493)"
         inkscape:transform-center-y="-0.75849979"
         d="M 71.339578,84.285522 C 70.782095,85.053376 86.378143,129.28147 85.475796,129.575 84.57345,129.86852 71.163981,84.929151 70.261436,84.636233 69.358892,84.343315 32.114919,112.84327 31.556918,112.07579 30.998917,111.30832 69.595046,84.668123 69.594726,83.719235 69.594406,82.770348 30.980316,56.156196 31.537799,55.388341 c 0.557484,-0.767854 37.820672,27.706974 38.723019,27.413447 0.902347,-0.293526 14.2815,-45.241933 15.184044,-44.949015 0.902545,0.292918 -14.663668,44.531522 -14.105667,45.299 0.558001,0.767478 47.440865,-0.398013 47.441185,0.550874 3.2e-4,0.948888 -46.883319,-0.18498 -47.440802,0.582875 z"
         inkscape:randomized="0"
         inkscape:rounded="0.02"
         inkscape:flatsided="false"
         sodipodi:arg2="1.2562998"
         sodipodi:arg1="0.62798129"
         sodipodi:r2="48.22123"
         sodipodi:r1="0.96442461"
         sodipodi:cy="83.71891"
         sodipodi:cx="70.559151"
         sodipodi:sides="5"
         id="path4928-4-6-8"
         style="fill:#f9f9f9;fill-opacity:1;stroke-width:0.26458332"
         sodipodi:type="star" />
    </g>
    <rect
       style="opacity:0.5;fill:#e6e6e6;fill-opacity:1;stroke-width:0.26458332"
       id="rect1478-1-9"
       width="56.318455"
       height="22.678572"
       x="69.963387"
       y="209.98952" />
    <text
       xml:space="preserve"
       style="font-style:normal;font-variant:normal;font-weight:normal;font-stretch:normal;font-size:10.58333302px;line-height:0.5;font-family:'Futura Md BT';-inkscape-font-specification:'Futura Md BT';letter-spacing:0px;word-spacing:0px;fill:#ff8080;fill-opacity:1;stroke:none;stroke-width:0.26458332"
       x="97.928833"
       y="214.3363"
       id="text1486-1-3"><tspan
         sodipodi:role="line"
         x="98.356026"
         y="214.3363"
         style="font-size:2.82222223px;line-height:0.5;text-align:center;text-anchor:middle;fill:#ff8080;fill-opacity:1;stroke-width:0.26458332"
         id="tspan1611-9">Ubah warna spoke menjadi putih, </tspan><tspan
         sodipodi:role="line"
         x="98.356026"
         y="219.70377"
         style="font-size:2.82222223px;line-height:0.5;text-align:center;text-anchor:middle;fill:#ff8080;fill-opacity:1;stroke-width:0.26458332"
         id="tspan1669">atau warna lain tetapi masih cukup </tspan><tspan
         sodipodi:role="line"
         x="98.356026"
         y="225.07123"
         style="font-size:2.82222223px;line-height:0.5;text-align:center;text-anchor:middle;fill:#ff8080;fill-opacity:1;stroke-width:0.26458332"
         id="tspan1675">kontras. Lalu dipindah ke atas </tspan><tspan
         sodipodi:role="line"
         x="97.928833"
         y="230.43867"
         style="font-size:2.82222223px;line-height:0.5;text-align:center;text-anchor:middle;fill:#ff8080;fill-opacity:1;stroke-width:0.26458332"
         id="tspan1679">bintang laut.</tspan></text>
    <g
       id="g173"
       transform="translate(-36.507243,80.043687)">
      <g
         id="g38">
        <path
           sodipodi:type="star"
           style="fill:#ff8080;fill-opacity:1;stroke-width:0.26458332"
           id="path4928-1-2-3-2"
           sodipodi:sides="5"
           sodipodi:cx="70.559151"
           sodipodi:cy="83.71891"
           sodipodi:r1="27.727207"
           sodipodi:r2="48.22123"
           sodipodi:arg1="0.62798129"
           sodipodi:arg2="1.2562998"
           inkscape:flatsided="false"
           inkscape:rounded="0.15"
           inkscape:randomized="0"
           d="m 92.996427,100.00899 c -2.688531,3.70307 -3.168951,28.15044 -7.520631,29.56601 -4.351679,1.41557 -19.123297,-18.07043 -23.47593,-19.48306 -4.352633,-1.41263 -27.751919,5.68511 -30.442948,1.98385 -2.691029,-3.70125 11.27657,-23.771401 11.275027,-28.347529 -0.0015,-4.576128 -13.982677,-24.636847 -11.294146,-28.33992 2.688532,-3.703072 26.092602,3.378888 30.444281,1.963319 4.351679,-1.415569 19.110149,-20.911521 23.462782,-19.498887 4.352633,1.412633 4.849544,25.859672 7.540573,29.56093 2.691029,3.701258 25.793395,11.712816 25.794945,16.288944 0.002,4.576128 -23.095421,12.603268 -25.783953,16.306343 z"
           inkscape:transform-center-y="-0.75849979"
           transform="matrix(0.2363887,-0.07394984,0.07394984,0.2363887,53.664383,160.54593)"
           inkscape:transform-center-x="1.0431358" />
        <path
           sodipodi:type="star"
           style="fill:#f9f9f9;fill-opacity:1;stroke-width:0.26458332"
           id="path4928-4-6-8-2"
           sodipodi:sides="5"
           sodipodi:cx="70.559151"
           sodipodi:cy="83.71891"
           sodipodi:r1="0.96442461"
           sodipodi:r2="48.22123"
           sodipodi:arg1="0.62798129"
           sodipodi:arg2="1.2562998"
           inkscape:flatsided="false"
           inkscape:rounded="0.02"
           inkscape:randomized="0"
           d="M 71.339578,84.285522 C 70.782095,85.053376 86.378143,129.28147 85.475796,129.575 84.57345,129.86852 71.163981,84.929151 70.261436,84.636233 69.358892,84.343315 32.114919,112.84327 31.556918,112.07579 30.998917,111.30832 69.595046,84.668123 69.594726,83.719235 69.594406,82.770348 30.980316,56.156196 31.537799,55.388341 c 0.557484,-0.767854 37.820672,27.706974 38.723019,27.413447 0.902347,-0.293526 14.2815,-45.241933 15.184044,-44.949015 0.902545,0.292918 -14.663668,44.531522 -14.105667,45.299 0.558001,0.767478 47.440865,-0.398013 47.441185,0.550874 3.2e-4,0.948888 -46.883319,-0.18498 -47.440802,0.582875 z"
           inkscape:transform-center-y="-0.75849979"
           transform="matrix(0.2363887,-0.07394984,0.07394984,0.2363887,53.663084,160.56315)"
           inkscape:transform-center-x="1.0431358" />
      </g>
      <circle
         r="0.55124342"
         cy="175.12408"
         cx="76.53643"
         id="path40"
         style="fill:#ffffff;fill-opacity:1;stroke-width:0.12126737" />
      <circle
         r="0.34999999"
         cy="170.52773"
         cx="73.438751"
         id="path40-6"
         style="fill:#ffffff;fill-opacity:1;stroke-width:0.07699607" />
      <circle
         r="0.24413776"
         cy="173.56157"
         cx="75.447067"
         id="path40-6-6"
         style="fill:#ffffff;fill-opacity:1;stroke-width:0.05370757" />
      <circle
         r="0.34999999"
         transform="scale(-1,1)"
         cy="170.64291"
         cx="-80.05014"
         id="path40-6-9"
         style="fill:#ffffff;fill-opacity:1;stroke-width:0.07699607" />
      <circle
         transform="scale(-1,1)"
         r="0.24413776"
         cy="173.57936"
         cx="-77.769844"
         id="path40-6-6-3"
         style="fill:#ffffff;fill-opacity:1;stroke-width:0.05370757" />
      <circle
         r="0.34999999"
         transform="scale(-1)"
         cy="-176.87253"
         cx="-81.808144"
         id="path40-6-9-0"
         style="fill:#ffffff;fill-opacity:1;stroke-width:0.07699607" />
      <circle
         transform="scale(-1)"
         r="0.24413776"
         cy="-175.84166"
         cx="-78.28772"
         id="path40-6-6-3-1"
         style="fill:#ffffff;fill-opacity:1;stroke-width:0.05370757" />
      <circle
         transform="scale(-1)"
         r="0.24413776"
         cy="-177.00438"
         cx="-76.492928"
         id="path40-6-6-3-1-4"
         style="fill:#ffffff;fill-opacity:1;stroke-width:0.05370757" />
      <circle
         r="0.34999999"
         transform="scale(-1)"
         cy="-180.56708"
         cx="-76.491653"
         id="path40-6-6-3-1-6"
         style="fill:#ffffff;fill-opacity:1;stroke-width:0.07699607" />
      <circle
         r="0.34999999"
         transform="scale(-1)"
         cy="-176.62599"
         cx="-71.381912"
         id="path40-6-6-3-1-64"
         style="fill:#ffffff;fill-opacity:1;stroke-width:0.07699607" />
      <circle
         transform="scale(-1)"
         r="0.24413776"
         cy="-175.59506"
         cx="-74.684547"
         id="path40-6-6-3-1-7"
         style="fill:#ffffff;fill-opacity:1;stroke-width:0.05370757" />
    </g>
    <rect
       style="opacity:0.5;fill:#e6e6e6;fill-opacity:1;stroke-width:0.26458332"
       id="rect1478-5"
       width="56.318455"
       height="22.678572"
       x="69.963387"
       y="243.78044" />
    <text
       xml:space="preserve"
       style="font-style:normal;font-variant:normal;font-weight:normal;font-stretch:normal;font-size:10.58333302px;line-height:0.5;font-family:'Futura Md BT';-inkscape-font-specification:'Futura Md BT';letter-spacing:0px;word-spacing:0px;fill:#ff8080;fill-opacity:1;stroke:none;stroke-width:0.26458332"
       x="97.928833"
       y="251.83136"
       id="text1486-69"><tspan
         sodipodi:role="line"
         x="98.623016"
         y="251.83136"
         style="font-size:4.58611107px;line-height:0.5;text-align:center;text-anchor:middle;fill:#ff8080;fill-opacity:1;stroke-width:0.26458332"
         id="tspan1496-2">Hiasi bintang lautnya, </tspan><tspan
         sodipodi:role="line"
         x="98.623024"
         y="257.18158"
         style="font-size:4.58611107px;line-height:0.5;text-align:center;text-anchor:middle;fill:#ff8080;fill-opacity:1;stroke-width:0.26458332"
         id="tspan1764">bisa menggunakan shape </tspan><tspan
         sodipodi:role="line"
         x="97.928833"
         y="262.5318"
         style="font-size:4.58611107px;line-height:0.5;text-align:center;text-anchor:middle;fill:#ff8080;fill-opacity:1;stroke-width:0.26458332"
         id="tspan1766">circle.</tspan></text>
  </g>
</svg>
